<svg width="360" height="55" viewBox="0 0 360 55" fill="none" xmlns="http://www.w3.org/2000/svg">
<path d="M142.072 51.768C138.531 51.768 135.245 51.192 132.216 50.04C129.229 48.888 126.627 47.2667 124.408 45.176C122.232 43.0853 120.525 40.632 119.288 37.816C118.093 35 117.496 31.928 117.496 28.6C117.496 25.272 118.093 22.2 119.288 19.384C120.525 16.568 122.253 14.1147 124.472 12.024C126.691 9.93333 129.293 8.312 132.28 7.16C135.267 6.008 138.509 5.432 142.008 5.432C145.549 5.432 148.792 6.008 151.736 7.16C154.723 8.312 157.304 9.93333 159.48 12.024C161.699 14.1147 163.427 16.568 164.664 19.384C165.901 22.1573 166.52 25.2293 166.52 28.6C166.52 31.928 165.901 35.0213 164.664 37.88C163.427 40.696 161.699 43.1493 159.48 45.24C157.304 47.288 154.723 48.888 151.736 50.04C148.792 51.192 145.571 51.768 142.072 51.768ZM142.008 42.936C144.013 42.936 145.848 42.5947 147.512 41.912C149.219 41.2293 150.712 40.248 151.992 38.968C153.272 37.688 154.253 36.1733 154.936 34.424C155.661 32.6747 156.024 30.7333 156.024 28.6C156.024 26.4667 155.661 24.5253 154.936 22.776C154.253 21.0267 153.272 19.512 151.992 18.232C150.755 16.952 149.283 15.9707 147.576 15.288C145.869 14.6053 144.013 14.264 142.008 14.264C140.003 14.264 138.147 14.6053 136.44 15.288C134.776 15.9707 133.304 16.952 132.024 18.232C130.744 19.512 129.741 21.0267 129.016 22.776C128.333 24.5253 127.992 26.4667 127.992 28.6C127.992 30.6907 128.333 32.632 129.016 34.424C129.741 36.1733 130.723 37.688 131.96 38.968C133.24 40.248 134.733 41.2293 136.44 41.912C138.147 42.5947 140.003 42.936 142.008 42.936Z" fill="#230903"/>
<path d="M183.912 51V6.2H203.304C207.315 6.2 210.771 6.86133 213.672 8.184C216.573 9.464 218.813 11.32 220.392 13.752C221.971 16.184 222.76 19.0853 222.76 22.456C222.76 25.784 221.971 28.664 220.392 31.096C218.813 33.528 216.573 35.4053 213.672 36.728C210.771 38.008 207.315 38.648 203.304 38.648H189.672L194.28 33.976V51H183.912ZM194.28 35.128L189.672 30.2H202.728C205.928 30.2 208.317 29.5173 209.896 28.152C211.475 26.7867 212.264 24.888 212.264 22.456C212.264 19.9813 211.475 18.0613 209.896 16.696C208.317 15.3307 205.928 14.648 202.728 14.648H189.672L194.28 9.72V35.128Z" fill="#230903"/>
<path d="M247.854 51V14.648H233.518V6.2H272.559V14.648H258.223V51H247.854Z" fill="#230903"/>
<path d="M287.737 51V6.2H298.105V51H287.737Z" fill="#230903"/>
<path d="M318.337 51V6.2H326.913L353.345 38.456H349.185V6.2H359.425V51H350.913L324.417 18.744H328.577V51H318.337Z" fill="#230903"/>
<path d="M27.2808 55C33.8322 55.0086 40.1661 52.6281 45.116 48.2967C50.0659 43.9653 53.2984 37.9749 54.2182 31.4285H78.3529C79.3004 35.1318 81.5536 38.3593 84.6902 40.5059C87.8269 42.6525 91.6316 43.571 95.3912 43.089C99.1508 42.6071 102.607 40.7579 105.113 37.888C107.618 35.0182 109 31.3247 109 27.5C109 23.6752 107.618 19.9818 105.113 17.1119C102.607 14.2421 99.1508 12.3929 95.3912 11.9109C91.6316 11.429 87.8269 12.3474 84.6902 14.494C81.5536 16.6407 79.3004 19.8681 78.3529 23.5714H54.2182C53.4719 18.3529 51.2547 13.4609 47.831 9.47831C44.4072 5.49571 39.9212 2.59039 34.9073 1.10849C29.8935 -0.373406 24.5632 -0.369408 19.5515 1.12001C14.5398 2.60943 10.0581 5.52148 6.64021 9.50921C3.22233 13.4969 1.01241 18.3922 0.273743 23.6119C-0.464919 28.8315 0.298814 34.1554 2.47395 38.9493C4.64909 43.7432 8.14394 47.805 12.5421 50.6507C16.9403 53.4964 22.0563 55.0062 27.2808 55ZM27.2808 7.85712C32.4428 7.85712 37.3934 9.92663 41.0435 13.6104C44.6936 17.2941 46.7442 22.2904 46.7442 27.5C46.7442 32.7096 44.6936 37.7058 41.0435 41.3896C37.3934 45.0733 32.4428 47.1428 27.2808 47.1428C22.1188 47.1428 17.1681 45.0733 13.518 41.3896C9.86794 37.7058 7.81733 32.7096 7.81733 27.5C7.81733 22.2904 9.86794 17.2941 13.518 13.6104C17.1681 9.92663 22.1188 7.85712 27.2808 7.85712Z" fill="#230903"/>
</svg>
